<?xml version="1.0" encoding="UTF-8" standalone="no"?><!-- Generator: Gravit.io --><svg xmlns="http://www.w3.org/2000/svg" xmlns:xlink="http://www.w3.org/1999/xlink" style="isolation:isolate" viewBox="0 0 1080 1080" width="1080pt" height="1080pt"><defs><clipPath id="_clipPath_0hp4P2pL0Q2coKoGIPWQQqa3lsOuRNFd"><rect width="1080" height="1080"/></clipPath></defs><g clip-path="url(#_clipPath_0hp4P2pL0Q2coKoGIPWQQqa3lsOuRNFd)"><g><g><path d=" M 779.029 501.9 C 795.533 408.23 842.741 307.8 906.165 318.975 C 969.588 330.149 1025.363 448.723 1008.86 542.394 C 992.356 636.064 927.465 703.04 864.042 691.866 C 800.618 680.691 762.526 595.57 779.029 501.9 Z " fill="rgb(235,235,235)"/><path d=" M 309.144 688.675 C 242.022 731.38 199.904 792.798 199.904 861.005 C 199.904 936.274 251.194 1003.273 330.762 1045.993 C 387.448 1076.428 458.486 1045.993 535.557 1045.993 C 617.984 1045.993 693.512 1073.823 751.961 1039.471 C 824.874 996.618 871.21 932.547 871.21 861.005 C 871.21 792.798 829.092 731.38 761.97 688.675 C 744.6 552.173 649.777 447.697 535.557 447.697 C 421.337 447.697 326.514 552.173 309.144 688.675 Z " fill="rgb(235,235,235)"/><path d=" M 549.483 239.984 C 551.512 135.805 585.633 19.119 656.172 20.492 C 726.711 21.866 807.127 140.783 805.098 244.962 C 803.069 349.141 744.154 432.607 673.615 431.233 C 603.076 429.859 547.454 344.164 549.483 239.984 Z " fill="rgb(235,235,235)"/><path d=" M 513.597 243.177 C 514.454 138.981 483.577 21.395 413.027 20.815 C 342.477 20.234 258.799 136.879 257.942 241.074 C 257.085 345.27 313.667 430.334 384.217 430.915 C 454.767 431.495 512.74 347.372 513.597 243.177 Z " fill="rgb(235,235,235)"/><path d=" M 295.044 501.9 C 278.54 408.23 231.332 307.8 167.909 318.975 C 104.485 330.149 48.71 448.723 65.214 542.394 C 81.717 636.064 146.608 703.04 210.032 691.866 C 273.455 680.691 311.548 595.57 295.044 501.9 Z " fill="rgb(235,235,235)"/></g><path d=" M 377.752 701.916 L 201.003 525.167 C 188.685 512.849 168.684 512.849 156.367 525.167 L 79.921 601.613 C 67.603 613.93 67.603 633.931 79.921 646.249 L 256.67 822.998 L 256.67 822.998 L 355.434 921.762 C 367.751 934.079 387.752 934.079 400.07 921.762 L 498.834 822.998 L 498.834 822.998 L 1000.079 321.753 C 1012.397 309.435 1012.397 289.434 1000.079 277.116 L 923.633 200.671 C 911.316 188.353 891.315 188.353 878.997 200.671 L 377.752 701.916 Z " fill="rgb(61,179,159)"/></g></g></svg>