<?xml version="1.0" encoding="UTF-8" standalone="no"?><!-- Generator: Gravit.io --><svg xmlns="http://www.w3.org/2000/svg" xmlns:xlink="http://www.w3.org/1999/xlink" style="isolation:isolate" viewBox="0 0 1440 3072" width="1440pt" height="3072pt"><defs><clipPath id="_clipPath_ejer2SxMd3b2DGx9utt3vemIQvPP6HKy"><rect width="1440" height="3072"/></clipPath></defs><g clip-path="url(#_clipPath_ejer2SxMd3b2DGx9utt3vemIQvPP6HKy)"><g style="opacity:0.45;"><path d=" M 315.722 895.569 C 334.025 867.123 363.327 840.686 382.588 853.079 C 401.848 865.471 403.821 912.031 385.518 940.477 C 367.215 968.923 336.718 981.956 317.457 969.563 C 298.197 957.171 297.419 924.015 315.722 895.569 Z " fill="rgb(235,235,235)"/><path d=" M 135.929 892.152 C 108.041 896.919 85.777 911.263 76.39 933.631 C 66.032 958.313 73.631 987.343 93.844 1012.302 C 108.245 1030.084 135.729 1029.88 161.003 1040.486 C 188.033 1051.83 208.971 1071.35 232.865 1068.129 C 262.673 1064.11 286.685 1049.476 296.531 1026.016 C 305.918 1003.648 300.558 977.712 284.424 954.47 C 297.513 907.317 280.796 860.006 243.34 844.287 C 205.884 828.568 160.411 849.78 135.929 892.152 Z " fill="rgb(235,235,235)"/><path d=" M 276.492 778.089 C 291.495 744.204 318.742 710.635 341.685 720.793 C 364.628 730.951 374.633 781.015 359.631 814.899 C 344.628 848.783 313.822 868.046 290.879 857.888 C 267.936 847.73 261.49 811.973 276.492 778.089 Z " fill="rgb(235,235,235)"/><path d=" M 264.285 774.197 C 278.905 740.146 284.962 697.337 261.907 687.438 C 238.851 677.538 195.358 704.273 180.737 738.324 C 166.117 772.375 172.965 808.057 196.021 817.956 C 219.076 827.856 249.664 808.248 264.285 774.197 Z " fill="rgb(235,235,235)"/><path d=" M 157.009 828.963 C 164.488 795.974 162.828 756.544 140.492 751.48 C 118.156 746.416 83.547 777.624 76.069 810.613 C 68.59 843.601 80.652 874.495 102.988 879.559 C 125.324 884.622 149.531 861.951 157.009 828.963 Z " fill="rgb(235,235,235)"/></g><g style="opacity:0.45;"><path d=" M 800.737 -40.349 C 819.04 -68.795 848.342 -95.232 867.603 -82.839 C 886.863 -70.446 888.835 -23.887 870.532 4.559 C 852.229 33.005 821.733 46.039 802.472 33.646 C 783.211 21.253 782.434 -11.903 800.737 -40.349 Z " fill="rgb(235,235,235)"/><path d=" M 620.944 -43.765 C 593.056 -38.998 570.792 -24.654 561.405 -2.287 C 551.046 22.396 558.645 51.425 578.859 76.385 C 593.259 94.166 620.744 93.962 646.017 104.569 C 673.048 115.912 693.985 135.432 717.88 132.211 C 747.688 128.193 771.7 113.559 781.546 90.098 C 790.932 67.731 785.573 41.794 769.439 18.552 C 782.528 -28.601 765.811 -75.911 728.355 -91.63 C 690.899 -107.349 645.425 -86.138 620.944 -43.765 Z " fill="rgb(235,235,235)"/><path d=" M 761.507 -157.829 C 776.509 -191.713 803.757 -225.282 826.7 -215.124 C 849.642 -204.966 859.648 -154.903 844.646 -121.019 C 829.643 -87.134 798.836 -67.872 775.894 -78.03 C 752.951 -88.188 746.504 -123.945 761.507 -157.829 Z " fill="rgb(235,235,235)"/><path d=" M 749.3 -161.721 C 763.92 -195.771 769.977 -238.581 746.921 -248.48 C 723.866 -258.379 680.372 -231.644 665.752 -197.593 C 651.132 -163.542 657.98 -127.86 681.036 -117.961 C 704.091 -108.062 734.679 -127.67 749.3 -161.721 Z " fill="rgb(235,235,235)"/><path d=" M 642.024 -106.955 C 649.503 -139.943 647.843 -179.374 625.507 -184.438 C 603.171 -189.502 568.562 -158.294 561.083 -125.305 C 553.604 -92.317 565.667 -61.423 588.003 -56.359 C 610.339 -51.295 634.545 -73.966 642.024 -106.955 Z " fill="rgb(235,235,235)"/></g><g style="opacity:0.45;"><path d=" M 1072.156 277.216 C 1090.459 248.77 1119.761 222.333 1139.021 234.726 C 1158.282 247.119 1160.254 293.679 1141.951 322.125 C 1123.648 350.571 1093.151 363.604 1073.891 351.211 C 1054.63 338.818 1053.853 305.662 1072.156 277.216 Z " fill="rgb(235,235,235)"/><path d=" M 892.363 273.8 C 864.474 278.567 842.21 292.911 832.824 315.278 C 822.465 339.961 830.064 368.99 850.278 393.95 C 864.678 411.731 892.162 411.527 917.436 422.134 C 944.466 433.477 965.404 452.998 989.299 449.776 C 1019.106 445.758 1043.119 431.124 1052.964 407.663 C 1062.351 385.296 1056.992 359.359 1040.858 336.118 C 1053.947 288.964 1037.23 241.654 999.774 225.935 C 962.318 210.216 916.844 231.427 892.363 273.8 Z " fill="rgb(235,235,235)"/><path d=" M 1032.926 159.736 C 1047.928 125.852 1075.176 92.283 1098.119 102.441 C 1121.061 112.599 1131.067 162.662 1116.064 196.546 C 1101.062 230.431 1070.255 249.693 1047.312 239.535 C 1024.37 229.377 1017.923 193.621 1032.926 159.736 Z " fill="rgb(235,235,235)"/><path d=" M 1020.718 155.845 C 1035.339 121.794 1041.396 78.984 1018.34 69.085 C 995.284 59.186 951.791 85.921 937.171 119.972 C 922.55 154.023 929.399 189.705 952.454 199.604 C 975.51 209.503 1006.098 189.895 1020.718 155.845 Z " fill="rgb(235,235,235)"/><path d=" M 913.443 210.61 C 920.922 177.622 919.262 138.191 896.926 133.127 C 874.589 128.063 839.981 159.272 832.502 192.26 C 825.023 225.249 837.085 256.142 859.422 261.206 C 881.758 266.27 905.964 243.599 913.443 210.61 Z " fill="rgb(235,235,235)"/></g><g style="opacity:0.45;"><path d=" M 525.523 427.216 C 543.826 398.77 573.128 372.333 592.389 384.726 C 611.65 397.119 613.622 443.679 595.319 472.125 C 577.016 500.571 546.519 513.604 527.258 501.211 C 507.998 488.818 507.22 455.662 525.523 427.216 Z " fill="rgb(235,235,235)"/><path d=" M 345.73 423.8 C 317.842 428.567 295.578 442.911 286.191 465.278 C 275.833 489.961 283.432 518.99 303.645 543.95 C 318.046 561.731 345.53 561.527 370.804 572.134 C 397.834 583.477 418.772 602.998 442.666 599.776 C 472.474 595.758 496.486 581.124 506.332 557.663 C 515.719 535.296 510.359 509.359 494.225 486.118 C 507.314 438.964 490.597 391.654 453.141 375.935 C 415.685 360.216 370.212 381.427 345.73 423.8 Z " fill="rgb(235,235,235)"/><path d=" M 486.293 309.736 C 501.296 275.852 528.543 242.283 551.486 252.441 C 574.429 262.599 584.434 312.662 569.432 346.546 C 554.429 380.431 523.623 399.693 500.68 389.535 C 477.737 379.377 471.291 343.621 486.293 309.736 Z " fill="rgb(235,235,235)"/><path d=" M 474.086 305.845 C 488.706 271.794 494.763 228.984 471.708 219.085 C 448.652 209.186 405.159 235.921 390.538 269.972 C 375.918 304.023 382.766 339.705 405.822 349.604 C 428.877 359.503 459.465 339.895 474.086 305.845 Z " fill="rgb(235,235,235)"/><path d=" M 366.81 360.61 C 374.289 327.622 372.629 288.191 350.293 283.127 C 327.957 278.063 293.348 309.272 285.87 342.26 C 278.391 375.249 290.453 406.142 312.789 411.206 C 335.125 416.27 359.332 393.599 366.81 360.61 Z " fill="rgb(235,235,235)"/></g><g style="opacity:0.45;"><path d=" M 572.693 1278.699 C 590.996 1250.253 620.298 1223.816 639.558 1236.209 C 658.819 1248.602 660.791 1295.161 642.488 1323.607 C 624.185 1352.053 593.688 1365.087 574.428 1352.694 C 555.167 1340.301 554.39 1307.145 572.693 1278.699 Z " fill="rgb(235,235,235)"/><path d=" M 392.9 1275.283 C 365.011 1280.05 342.747 1294.394 333.361 1316.761 C 323.002 1341.444 330.601 1370.473 350.815 1395.433 C 365.215 1413.214 392.699 1413.01 417.973 1423.617 C 445.003 1434.96 465.941 1454.48 489.836 1451.259 C 519.643 1447.241 543.656 1432.607 553.502 1409.146 C 562.888 1386.779 557.529 1360.842 541.395 1337.6 C 554.484 1290.447 537.767 1243.137 500.311 1227.418 C 462.855 1211.699 417.381 1232.91 392.9 1275.283 Z " fill="rgb(235,235,235)"/><path d=" M 533.463 1161.219 C 548.465 1127.335 575.713 1093.766 598.656 1103.924 C 621.598 1114.082 631.604 1164.145 616.601 1198.029 C 601.599 1231.914 570.792 1251.176 547.849 1241.018 C 524.907 1230.86 518.46 1195.103 533.463 1161.219 Z " fill="rgb(235,235,235)"/><path d=" M 521.255 1157.327 C 535.876 1123.277 541.933 1080.467 518.877 1070.568 C 495.821 1060.669 452.328 1087.404 437.708 1121.455 C 423.088 1155.506 429.936 1191.188 452.991 1201.087 C 476.047 1210.986 506.635 1191.378 521.255 1157.327 Z " fill="rgb(235,235,235)"/><path d=" M 413.98 1212.093 C 421.459 1179.105 419.799 1139.674 397.463 1134.61 C 375.126 1129.546 340.518 1160.754 333.039 1193.743 C 325.56 1226.731 337.623 1257.625 359.959 1262.689 C 382.295 1267.753 406.501 1245.082 413.98 1212.093 Z " fill="rgb(235,235,235)"/></g><g style="opacity:0.45;"><path d=" M 703.391 2579.207 C 685.422 2550.548 673.947 2512.788 693.352 2500.621 C 712.756 2488.455 755.739 2506.46 773.707 2535.119 C 791.676 2563.777 790.51 2596.922 771.106 2609.088 C 751.701 2621.254 721.359 2607.865 703.391 2579.207 Z " fill="rgb(235,235,235)"/><path d=" M 623.876 2740.497 C 616.337 2767.767 619.857 2794.017 636.114 2812.02 C 654.053 2831.888 683.559 2837.349 714.743 2829.662 C 736.96 2824.185 748.457 2799.22 768.801 2780.852 C 790.558 2761.207 817.127 2750.552 824.367 2727.554 C 833.4 2698.865 830.36 2670.909 813.31 2652.025 C 797.053 2634.021 771.298 2627.848 743.403 2632.573 C 706.285 2600.682 656.355 2595.705 626.206 2622.927 C 596.057 2650.15 595.928 2700.326 623.876 2740.497 Z " fill="rgb(235,235,235)"/><path d=" M 580.377 2564.781 C 556.083 2536.798 537.279 2497.866 556.226 2481.417 C 575.172 2464.967 624.741 2477.19 649.035 2505.173 C 673.329 2533.155 677.67 2569.228 658.723 2585.677 C 639.777 2602.127 604.671 2592.763 580.377 2564.781 Z " fill="rgb(235,235,235)"/><path d=" M 571.665 2574.176 C 547.058 2546.469 510.883 2522.79 492.123 2539.451 C 473.362 2556.113 479.075 2606.845 503.682 2634.553 C 528.289 2662.26 563.498 2671.228 582.259 2654.567 C 601.019 2637.905 596.273 2601.884 571.665 2574.176 Z " fill="rgb(235,235,235)"/><path d=" M 575.639 2694.557 C 548.958 2673.765 512.561 2658.508 498.484 2676.573 C 484.406 2694.639 497.944 2739.23 524.625 2760.022 C 551.306 2780.814 584.397 2783.027 598.475 2764.961 C 612.553 2746.896 602.32 2715.348 575.639 2694.557 Z " fill="rgb(235,235,235)"/></g><g style="opacity:0.45;"><path d=" M 999.996 3045.854 C 985.355 3015.361 978.188 2976.552 998.835 2966.639 C 1019.481 2956.726 1060.173 2979.439 1074.814 3009.932 C 1089.454 3040.425 1084.578 3073.229 1063.932 3083.142 C 1043.285 3093.055 1014.636 3076.347 999.996 3045.854 Z " fill="rgb(235,235,235)"/><path d=" M 902.891 3197.207 C 892.341 3223.46 892.895 3249.939 907.029 3269.652 C 922.626 3291.407 951.334 3300.143 983.184 3296.002 C 1005.874 3293.052 1020.099 3269.534 1042.374 3253.564 C 1066.198 3236.483 1093.794 3228.875 1103.569 3206.835 C 1115.763 3179.34 1115.878 3151.22 1101.053 3130.542 C 1086.919 3110.829 1062.019 3101.806 1033.769 3103.372 C 1000.463 3067.519 951.406 3056.972 918.394 3080.641 C 885.382 3104.31 879.625 3154.156 902.891 3197.207 Z " fill="rgb(235,235,235)"/><path d=" M 879.376 3017.721 C 858.374 2987.19 844.056 2946.394 864.728 2932.174 C 885.4 2917.954 933.285 2935.659 954.287 2966.19 C 975.289 2996.721 975.556 3033.053 954.884 3047.274 C 934.212 3061.494 900.378 3048.252 879.376 3017.721 Z " fill="rgb(235,235,235)"/><path d=" M 869.666 3026.08 C 848.322 2995.787 815.031 2968.2 794.52 2982.652 C 774.009 2997.104 773.995 3048.157 795.339 3078.45 C 816.683 3108.743 850.664 3121.603 871.175 3107.151 C 891.686 3092.7 891.01 3056.373 869.666 3026.08 Z " fill="rgb(235,235,235)"/><path d=" M 860.112 3146.147 C 835.931 3122.494 801.475 3103.25 785.46 3119.622 C 769.445 3135.995 777.896 3181.823 802.076 3205.477 C 826.257 3229.13 858.891 3235.041 874.906 3218.668 C 890.921 3202.296 884.292 3169.8 860.112 3146.147 Z " fill="rgb(235,235,235)"/></g><g style="opacity:0.45;"><path d=" M 1260.194 2597.958 C 1246.974 2566.823 1241.603 2527.724 1262.684 2518.773 C 1283.766 2509.822 1323.368 2534.386 1336.588 2565.521 C 1349.808 2596.656 1343.426 2629.201 1322.344 2638.152 C 1301.263 2647.104 1273.414 2629.093 1260.194 2597.958 Z " fill="rgb(235,235,235)"/><path d=" M 1156.219 2744.676 C 1144.47 2770.415 1143.803 2796.891 1157.014 2817.235 C 1171.592 2839.685 1199.867 2849.735 1231.874 2847.065 C 1254.676 2845.164 1269.97 2822.327 1292.957 2807.4 C 1317.543 2791.435 1345.46 2785.107 1356.24 2763.54 C 1369.688 2736.636 1371.099 2708.551 1357.242 2687.213 C 1344.031 2666.869 1319.573 2656.708 1291.281 2656.971 C 1259.662 2619.621 1211.144 2606.825 1177.076 2628.948 C 1143.008 2651.071 1134.961 2700.598 1156.219 2744.676 Z " fill="rgb(235,235,235)"/><path d=" M 1140.999 2564.297 C 1121.426 2532.831 1109.003 2491.418 1130.308 2478.166 C 1151.614 2464.913 1198.632 2484.807 1218.205 2516.273 C 1237.777 2547.739 1236.371 2584.045 1215.065 2597.297 C 1193.76 2610.55 1160.572 2595.763 1140.999 2564.297 Z " fill="rgb(235,235,235)"/><path d=" M 1130.914 2572.2 C 1110.988 2540.956 1079.004 2511.864 1057.849 2525.355 C 1036.694 2538.847 1034.328 2589.845 1054.253 2621.089 C 1074.179 2652.333 1107.531 2666.746 1128.686 2653.255 C 1149.841 2639.763 1150.839 2603.444 1130.914 2572.2 Z " fill="rgb(235,235,235)"/><path d=" M 1115.838 2691.699 C 1092.773 2666.957 1059.24 2646.145 1042.487 2661.763 C 1025.735 2677.38 1032.065 2723.549 1055.13 2748.291 C 1078.195 2773.034 1110.522 2780.442 1127.275 2764.825 C 1144.028 2749.208 1138.903 2716.441 1115.838 2691.699 Z " fill="rgb(235,235,235)"/></g><g style="opacity:0.45;"><path d=" M 851.951 734.086 C 870.254 705.64 899.556 679.203 918.816 691.596 C 938.077 703.988 940.049 750.548 921.746 778.994 C 903.443 807.44 872.946 820.473 853.686 808.081 C 834.425 795.688 833.648 762.532 851.951 734.086 Z " fill="rgb(235,235,235)"/><path d=" M 672.158 730.669 C 644.269 735.436 622.005 749.781 612.619 772.148 C 602.26 796.831 609.859 825.86 630.073 850.819 C 644.473 868.601 671.957 868.397 697.231 879.003 C 724.261 890.347 745.199 909.867 769.094 906.646 C 798.901 902.627 822.914 887.993 832.759 864.533 C 842.146 842.166 836.787 816.229 820.652 792.987 C 833.742 745.834 817.024 698.523 779.568 682.805 C 742.112 667.086 696.639 688.297 672.158 730.669 Z " fill="rgb(235,235,235)"/><path d=" M 812.72 616.606 C 827.723 582.722 854.971 549.153 877.913 559.311 C 900.856 569.469 910.862 619.532 895.859 653.416 C 880.857 687.3 850.05 706.563 827.107 696.405 C 804.165 686.247 797.718 650.49 812.72 616.606 Z " fill="rgb(235,235,235)"/><path d=" M 800.513 612.714 C 815.134 578.663 821.19 535.854 798.135 525.955 C 775.079 516.055 731.586 542.791 716.966 576.842 C 702.345 610.892 709.194 646.574 732.249 656.474 C 755.305 666.373 785.893 646.765 800.513 612.714 Z " fill="rgb(235,235,235)"/><path d=" M 693.238 667.48 C 700.717 634.491 699.057 595.061 676.72 589.997 C 654.384 584.933 619.776 616.141 612.297 649.13 C 604.818 682.118 616.88 713.012 639.217 718.076 C 661.553 723.14 685.759 700.468 693.238 667.48 Z " fill="rgb(235,235,235)"/></g><g style="opacity:0.45;"><path d=" M 936.062 2169.661 C 920.645 2139.553 912.487 2100.94 932.872 2090.501 C 953.258 2080.063 994.519 2101.726 1009.936 2131.834 C 1025.353 2161.942 1021.319 2194.86 1000.933 2205.299 C 980.547 2215.738 951.479 2199.769 936.062 2169.661 Z " fill="rgb(235,235,235)"/><path d=" M 842.867 2323.453 C 832.993 2349.967 834.225 2376.423 848.86 2395.768 C 865.009 2417.115 893.931 2425.113 925.664 2420.158 C 948.272 2416.627 961.89 2392.753 983.749 2376.217 C 1007.127 2358.531 1034.519 2350.219 1043.726 2327.936 C 1055.211 2300.137 1054.606 2272.024 1039.256 2251.733 C 1024.622 2232.388 999.498 2224.005 971.298 2226.295 C 937.084 2191.307 887.774 2182.02 855.379 2206.527 C 822.984 2231.034 818.506 2281.011 842.867 2323.453 Z " fill="rgb(235,235,235)"/><path d=" M 814.762 2144.628 C 792.984 2114.645 777.626 2074.229 797.927 2059.484 C 818.228 2044.739 866.551 2061.212 888.328 2091.195 C 910.105 2121.177 911.303 2157.491 891.002 2172.236 C 870.701 2186.981 836.539 2174.61 814.762 2144.628 Z " fill="rgb(235,235,235)"/><path d=" M 805.269 2153.233 C 783.156 2123.497 749.169 2096.771 729.035 2111.744 C 708.901 2126.717 710.195 2177.754 732.308 2207.489 C 754.421 2237.225 788.721 2249.211 808.855 2234.239 C 828.989 2219.266 827.382 2182.968 805.269 2153.233 Z " fill="rgb(235,235,235)"/><path d=" M 798.794 2273.505 C 774.015 2250.479 739.078 2232.124 723.487 2248.901 C 707.897 2265.679 717.519 2311.276 742.297 2334.302 C 767.076 2357.328 799.851 2362.401 815.441 2345.623 C 831.032 2328.846 823.573 2296.531 798.794 2273.505 Z " fill="rgb(235,235,235)"/></g><g style="opacity:0.45;"><path d=" M 372.642 2224.001 C 359.031 2193.035 353.169 2154.007 374.136 2144.791 C 395.103 2135.576 435.011 2159.64 448.622 2190.606 C 462.232 2221.573 456.26 2254.195 435.293 2263.411 C 414.325 2272.627 386.253 2254.968 372.642 2224.001 Z " fill="rgb(235,235,235)"/><path d=" M 270.52 2372.016 C 259.096 2397.9 258.763 2424.383 272.228 2444.559 C 287.088 2466.824 315.487 2476.517 347.457 2473.445 C 370.234 2471.257 385.239 2448.23 408.037 2433.014 C 432.42 2416.741 460.255 2410.063 470.763 2388.362 C 483.871 2361.291 484.929 2333.191 470.805 2312.028 C 457.339 2291.852 432.755 2282 404.469 2282.618 C 372.383 2245.67 323.707 2233.485 289.92 2256.034 C 256.134 2278.584 248.71 2328.209 270.52 2372.016 Z " fill="rgb(235,235,235)"/><path d=" M 253.033 2191.842 C 233.066 2160.625 220.122 2119.372 241.26 2105.853 C 262.397 2092.333 309.661 2111.633 329.628 2142.851 C 349.595 2174.068 348.645 2210.389 327.508 2223.909 C 306.371 2237.428 273 2223.06 253.033 2191.842 Z " fill="rgb(235,235,235)"/><path d=" M 243.048 2199.871 C 222.731 2168.88 190.383 2140.193 169.399 2153.95 C 148.416 2167.706 146.691 2218.73 167.008 2249.721 C 187.325 2280.712 220.856 2294.704 241.84 2280.948 C 262.824 2267.191 263.365 2230.862 243.048 2199.871 Z " fill="rgb(235,235,235)"/><path d=" M 229.476 2319.551 C 206.102 2295.1 172.31 2274.713 155.755 2290.539 C 139.2 2306.366 146.111 2352.452 169.485 2376.902 C 192.859 2401.352 225.277 2408.354 241.832 2392.527 C 258.387 2376.7 252.85 2344.001 229.476 2319.551 Z " fill="rgb(235,235,235)"/></g><g style="opacity:0.45;"><path d=" M 262.437 1747.729 C 243.214 1719.896 230.074 1682.682 248.92 1669.667 C 267.765 1656.651 311.504 1672.731 330.727 1700.564 C 349.95 1728.396 350.256 1761.56 331.411 1774.576 C 312.566 1787.591 281.659 1775.562 262.437 1747.729 Z " fill="rgb(235,235,235)"/><path d=" M 190.158 1912.389 C 183.837 1939.967 188.519 1966.035 205.558 1983.299 C 224.361 2002.351 254.081 2006.497 284.893 1997.433 C 306.845 1990.976 317.223 1965.526 336.731 1946.273 C 357.595 1925.681 383.665 1913.858 389.878 1890.561 C 397.628 1861.499 393.351 1833.706 375.479 1815.598 C 358.44 1798.333 332.436 1793.309 304.778 1799.267 C 266.281 1769.055 216.18 1766.298 187.268 1794.832 C 158.357 1823.366 160.455 1873.499 190.158 1912.389 Z " fill="rgb(235,235,235)"/><path d=" M 138.904 1738.777 C 113.392 1711.9 92.878 1673.841 111.076 1656.567 C 129.274 1639.293 179.336 1649.304 204.848 1676.18 C 230.36 1703.057 236.298 1738.902 218.1 1756.176 C 199.902 1773.45 164.415 1765.654 138.904 1738.777 Z " fill="rgb(235,235,235)"/><path d=" M 130.618 1748.55 C 104.805 1721.962 67.615 1699.912 49.612 1717.389 C 31.61 1734.867 39.568 1785.296 65.381 1811.884 C 91.194 1838.472 126.766 1845.868 144.769 1828.391 C 162.771 1810.913 156.43 1775.138 130.618 1748.55 Z " fill="rgb(235,235,235)"/><path d=" M 139.93 1868.635 C 112.353 1849.048 75.315 1835.421 62.052 1854.094 C 48.79 1872.766 64.294 1916.713 91.872 1936.3 C 119.449 1955.887 152.606 1956.629 165.868 1937.957 C 179.13 1919.284 167.508 1888.222 139.93 1868.635 Z " fill="rgb(235,235,235)"/></g><g style="opacity:0.45;"><path d=" M 64.184 1363.086 C 82.487 1334.64 111.789 1308.203 131.05 1320.596 C 150.31 1332.988 152.282 1379.548 133.98 1407.994 C 115.677 1436.44 85.18 1449.473 65.919 1437.081 C 46.659 1424.688 45.881 1391.532 64.184 1363.086 Z " fill="rgb(235,235,235)"/><path d=" M -115.609 1359.669 C -143.497 1364.436 -165.761 1378.781 -175.148 1401.148 C -185.506 1425.831 -177.907 1454.86 -157.694 1479.819 C -143.293 1497.601 -115.809 1497.397 -90.536 1508.003 C -63.505 1519.347 -42.568 1538.867 -18.673 1535.646 C 11.135 1531.627 35.147 1516.993 44.993 1493.533 C 54.38 1471.166 49.02 1445.229 32.886 1421.987 C 45.975 1374.834 29.258 1327.523 -8.198 1311.805 C -45.654 1296.086 -91.127 1317.297 -115.609 1359.669 Z " fill="rgb(235,235,235)"/><path d=" M 24.954 1245.606 C 39.956 1211.722 67.204 1178.153 90.147 1188.311 C 113.09 1198.469 123.095 1248.532 108.093 1282.416 C 93.09 1316.3 62.284 1335.563 39.341 1325.405 C 16.398 1315.247 9.952 1279.49 24.954 1245.606 Z " fill="rgb(235,235,235)"/><path d=" M 12.747 1241.714 C 27.367 1207.663 33.424 1164.854 10.368 1154.955 C -12.687 1145.055 -56.18 1171.791 -70.801 1205.842 C -85.421 1239.892 -78.573 1275.574 -55.517 1285.474 C -32.462 1295.373 -1.874 1275.765 12.747 1241.714 Z " fill="rgb(235,235,235)"/><path d=" M -94.529 1296.48 C -87.05 1263.491 -88.71 1224.061 -111.046 1218.997 C -133.382 1213.933 -167.991 1245.141 -175.47 1278.13 C -182.948 1311.118 -170.886 1342.012 -148.55 1347.076 C -126.214 1352.14 -102.008 1329.468 -94.529 1296.48 Z " fill="rgb(235,235,235)"/></g><g style="opacity:0.45;"><path d=" M 714.516 1700.179 C 702.774 1668.457 699.247 1629.149 720.726 1621.199 C 742.205 1613.249 780.608 1639.647 792.35 1671.37 C 804.092 1703.092 796.186 1735.301 774.707 1743.251 C 753.228 1751.201 726.257 1731.901 714.516 1700.179 Z " fill="rgb(235,235,235)"/><path d=" M 603.757 1841.847 C 590.811 1867.004 588.901 1893.42 601.14 1914.362 C 614.647 1937.473 642.418 1948.841 674.515 1947.679 C 697.381 1946.852 713.732 1924.759 737.396 1910.929 C 762.704 1896.138 790.889 1891.13 802.671 1870.094 C 817.368 1843.852 820.098 1815.864 807.26 1793.898 C 795.02 1772.955 771.067 1761.656 742.794 1760.588 C 712.966 1721.793 665.103 1706.73 630.033 1727.227 C 594.962 1747.723 584.596 1796.818 603.757 1841.847 Z " fill="rgb(235,235,235)"/><path d=" M 597.035 1660.951 C 578.963 1628.6 568.501 1586.649 590.406 1574.413 C 612.311 1562.176 658.341 1584.258 676.413 1616.61 C 694.485 1648.961 691.373 1685.161 669.468 1697.397 C 647.563 1709.634 615.107 1693.303 597.035 1660.951 Z " fill="rgb(235,235,235)"/><path d=" M 586.589 1668.371 C 568.155 1636.225 537.574 1605.661 515.808 1618.143 C 494.042 1630.625 489.28 1681.456 507.715 1713.602 C 526.15 1745.748 558.787 1761.713 580.553 1749.231 C 602.319 1736.75 605.024 1700.517 586.589 1668.371 Z " fill="rgb(235,235,235)"/><path d=" M 565.912 1787.029 C 544.035 1761.23 511.518 1738.865 494.05 1753.677 C 476.582 1768.489 480.734 1814.906 502.61 1840.705 C 524.487 1866.504 556.43 1875.424 573.898 1860.612 C 591.366 1845.8 587.788 1812.828 565.912 1787.029 Z " fill="rgb(235,235,235)"/></g></g></svg>