<?xml version="1.0" encoding="UTF-8" standalone="no"?><!-- Generator: Gravit.io --><svg xmlns="http://www.w3.org/2000/svg" xmlns:xlink="http://www.w3.org/1999/xlink" style="isolation:isolate" viewBox="0 0 1080 1080" width="1080pt" height="1080pt"><defs><clipPath id="_clipPath_0tBHrGGuXfIdbdb9I73B6jYtaLo0lxwb"><rect width="1080" height="1080"/></clipPath></defs><g clip-path="url(#_clipPath_0tBHrGGuXfIdbdb9I73B6jYtaLo0lxwb)"><g><g><path d=" M 779.029 501.9 C 795.533 408.23 842.741 307.8 906.165 318.975 C 969.588 330.149 1025.363 448.723 1008.86 542.394 C 992.356 636.064 927.465 703.04 864.042 691.866 C 800.618 680.691 762.526 595.57 779.029 501.9 Z " fill="rgb(235,235,235)"/><path d=" M 309.144 688.675 C 242.022 731.38 199.904 792.798 199.904 861.005 C 199.904 936.274 251.194 1003.273 330.762 1045.993 C 387.448 1076.428 458.486 1045.993 535.557 1045.993 C 617.984 1045.993 693.512 1073.823 751.961 1039.471 C 824.874 996.618 871.21 932.547 871.21 861.005 C 871.21 792.798 829.092 731.38 761.97 688.675 C 744.6 552.173 649.777 447.697 535.557 447.697 C 421.337 447.697 326.514 552.173 309.144 688.675 Z " fill="rgb(235,235,235)"/><path d=" M 549.483 239.984 C 551.512 135.805 585.633 19.119 656.172 20.492 C 726.711 21.866 807.127 140.783 805.098 244.962 C 803.069 349.141 744.154 432.607 673.615 431.233 C 603.076 429.859 547.454 344.164 549.483 239.984 Z " fill="rgb(235,235,235)"/><path d=" M 513.597 243.177 C 514.454 138.981 483.577 21.395 413.027 20.815 C 342.477 20.234 258.799 136.879 257.942 241.074 C 257.085 345.27 313.667 430.334 384.217 430.915 C 454.767 431.495 512.74 347.372 513.597 243.177 Z " fill="rgb(235,235,235)"/><path d=" M 295.044 501.9 C 278.54 408.23 231.332 307.8 167.909 318.975 C 104.485 330.149 48.71 448.723 65.214 542.394 C 81.717 636.064 146.608 703.04 210.032 691.866 C 273.455 680.691 311.548 595.57 295.044 501.9 Z " fill="rgb(235,235,235)"/></g><path d=" M 224.678 330.893 C 184.84 390.813 161.62 462.716 161.62 540 L 161.62 540 C 161.62 748.833 331.166 918.38 540 918.38 C 617.284 918.38 689.187 895.16 749.107 855.322 L 224.678 330.893 Z  M 296.74 250.263 C 362.533 194.953 447.404 161.62 540 161.62 C 748.834 161.62 918.38 331.166 918.38 540 C 918.38 632.596 885.047 717.467 829.737 783.26 L 296.74 250.263 Z  M 62.283 540 C 62.283 276.341 276.341 62.283 540 62.283 C 803.659 62.283 1017.717 276.341 1017.717 540 C 1017.717 803.659 803.659 1017.717 540 1017.717 C 276.341 1017.717 62.283 803.659 62.283 540 L 62.283 540 Z " fill-rule="evenodd" fill="rgb(232,48,85)"/></g></g></svg>